<?xml version="1.0" encoding="UTF-8" standalone="no"?>
<!-- Created with Inkscape (http://www.inkscape.org/) -->

<svg
   xmlns:dc="http://purl.org/dc/elements/1.1/"
   xmlns:cc="http://creativecommons.org/ns#"
   xmlns:rdf="http://www.w3.org/1999/02/22-rdf-syntax-ns#"
   xmlns:svg="http://www.w3.org/2000/svg"
   xmlns="http://www.w3.org/2000/svg"
   xmlns:xlink="http://www.w3.org/1999/xlink"
   xmlns:sodipodi="http://sodipodi.sourceforge.net/DTD/sodipodi-0.dtd"
   xmlns:inkscape="http://www.inkscape.org/namespaces/inkscape"
   width="133.75842"
   height="159.70343"
   id="svg2"
   version="1.1"
   inkscape:version="0.48.3.1 r9886"
   sodipodi:docname="Calculator.svg">
  <defs
     id="defs4">
    <linearGradient
       inkscape:collect="always"
       id="linearGradient4000">
      <stop
         style="stop-color:#dbe3e2;stop-opacity:1;"
         offset="0"
         id="stop4002" />
      <stop
         style="stop-color:#dbe3e2;stop-opacity:0;"
         offset="1"
         id="stop4004" />
    </linearGradient>
    <linearGradient
       inkscape:collect="always"
       id="linearGradient3843">
      <stop
         style="stop-color:#ffffff;stop-opacity:1;"
         offset="0"
         id="stop3845" />
      <stop
         style="stop-color:#ffffff;stop-opacity:0;"
         offset="1"
         id="stop3847" />
    </linearGradient>
    <linearGradient
       inkscape:collect="always"
       id="linearGradient3827">
      <stop
         style="stop-color:#e6e6e6;stop-opacity:0.57613169"
         offset="0"
         id="stop3829" />
      <stop
         style="stop-color:#ff0000;stop-opacity:1"
         offset="1"
         id="stop3831" />
    </linearGradient>
    <radialGradient
       inkscape:collect="always"
       xlink:href="#linearGradient3843"
       id="radialGradient4074"
       gradientUnits="userSpaceOnUse"
       gradientTransform="matrix(1,0,0,1.0618532,0,-20.952962)"
       cx="761.04285"
       cy="338.75323"
       fx="761.04285"
       fy="338.75323"
       r="36.438946" />
    <radialGradient
       inkscape:collect="always"
       xlink:href="#linearGradient3827"
       id="radialGradient4076"
       gradientUnits="userSpaceOnUse"
       gradientTransform="matrix(1,0,0,1.0618532,0,-20.952962)"
       cx="761.04285"
       cy="338.75323"
       fx="761.04285"
       fy="338.75323"
       r="36.438946" />
    <linearGradient
       inkscape:collect="always"
       xlink:href="#linearGradient4000"
       id="linearGradient4139"
       gradientUnits="userSpaceOnUse"
       x1="697.9494"
       y1="120.38225"
       x2="130.47719"
       y2="830.75806" />
    <filter
       inkscape:collect="always"
       id="filter4282"
       color-interpolation-filters="sRGB">
      <feGaussianBlur
         inkscape:collect="always"
         stdDeviation="15.948153"
         id="feGaussianBlur4284" />
    </filter>
    <linearGradient
       inkscape:collect="always"
       xlink:href="#linearGradient4000"
       id="linearGradient4367"
       gradientUnits="userSpaceOnUse"
       x1="697.9494"
       y1="120.38225"
       x2="130.47719"
       y2="830.75806" />
    <radialGradient
       inkscape:collect="always"
       xlink:href="#linearGradient3843"
       id="radialGradient4369"
       gradientUnits="userSpaceOnUse"
       gradientTransform="matrix(1,0,0,1.0618532,0,-20.952962)"
       cx="761.04285"
       cy="338.75323"
       fx="761.04285"
       fy="338.75323"
       r="36.438946" />
    <radialGradient
       inkscape:collect="always"
       xlink:href="#linearGradient3827"
       id="radialGradient4371"
       gradientUnits="userSpaceOnUse"
       gradientTransform="matrix(1,0,0,1.0618532,0,-20.952962)"
       cx="761.04285"
       cy="338.75323"
       fx="761.04285"
       fy="338.75323"
       r="36.438946" />
  </defs>
  <sodipodi:namedview
     id="base"
     pagecolor="#ffffff"
     bordercolor="#666666"
     borderopacity="1.0"
     inkscape:pageopacity="0.0"
     inkscape:pageshadow="2"
     inkscape:zoom="0.48284301"
     inkscape:cx="494.10068"
     inkscape:cy="-206.21994"
     inkscape:document-units="px"
     inkscape:current-layer="layer1"
     showgrid="false"
     fit-margin-top="0"
     fit-margin-left="0"
     fit-margin-right="0"
     fit-margin-bottom="0"
     inkscape:window-width="1231"
     inkscape:window-height="776"
     inkscape:window-x="49"
     inkscape:window-y="24"
     inkscape:window-maximized="1" />
  <metadata
     id="metadata7">
    <rdf:RDF>
      <cc:Work
         rdf:about="">
        <dc:format>image/svg+xml</dc:format>
        <dc:type
           rdf:resource="http://purl.org/dc/dcmitype/StillImage" />
        <dc:title />
      </cc:Work>
    </rdf:RDF>
  </metadata>
  <g
     inkscape:label="Layer 1"
     inkscape:groupmode="layer"
     id="layer1"
     transform="translate(-6.276071,-7.6270416)">
    <g
       id="g4286"
       transform="matrix(0.18474414,0,0,0.18474414,4.3525272,-7.5576675)">
      <path
         style="fill:#1c2224;fill-opacity:1;stroke:#000503;stroke-width:1.466766;stroke-miterlimit:4;stroke-opacity:1;filter:url(#filter4282)"
         d="m 67.16785,121.19263 610.51424,0 c 9.82756,0 17.73928,7.91171 17.73928,17.73927 l 0,750.9628 c 0,9.82755 -7.91172,17.73927 -17.73928,17.73927 l -610.51424,0 c -9.827559,0 -17.739276,-7.91172 -17.739276,-17.73927 l 0,-750.9628 c 0,-9.82756 7.911717,-17.73927 17.739276,-17.73927 z"
         id="path4248"
         inkscape:connector-curvature="0" />
      <path
         id="rect3996"
         d="m 69.012838,107.71217 625.853142,0 c 9.97501,0 18.00544,8.03043 18.00544,18.00544 l 0,762.2301 c 0,9.97501 -8.03043,18.00543 -18.00544,18.00543 l -625.853142,0 c -9.97501,0 -18.005434,-8.03042 -18.005434,-18.00543 l 0,-762.2301 c 0,-9.97501 8.030424,-18.00544 18.005434,-18.00544 z"
         style="fill:#00112b;fill-opacity:1;stroke:#008000;stroke-width:1.49577153;stroke-miterlimit:4"
         inkscape:connector-curvature="0" />
      <path
         id="rect3998"
         d="m 69.012838,107.71217 625.853142,0 c 9.97501,0 18.00544,8.03043 18.00544,18.00544 l 0,762.2301 c 0,9.97501 -8.03043,18.00543 -18.00544,18.00543 l -625.853142,0 c -9.97501,0 -18.005434,-8.03042 -18.005434,-18.00543 l 0,-762.2301 c 0,-9.97501 8.030424,-18.00544 18.005434,-18.00544 z"
         style="opacity:0.61728396;fill:url(#linearGradient4367);fill-opacity:1;stroke:none"
         inkscape:connector-curvature="0" />
      <path
         id="rect2985"
         d="m 67.16785,121.19263 610.51424,0 c 9.82756,0 17.73928,7.91171 17.73928,17.73927 l 0,750.9628 c 0,9.82755 -7.91172,17.73927 -17.73928,17.73927 l -610.51424,0 c -9.827559,0 -17.739276,-7.91172 -17.739276,-17.73927 l 0,-750.9628 c 0,-9.82756 7.911717,-17.73927 17.739276,-17.73927 z"
         style="fill:#214478;fill-opacity:1;stroke:#003380;stroke-width:1.466766;stroke-miterlimit:4"
         inkscape:connector-curvature="0" />
      <path
         id="rect2989"
         d="m 107.39113,376.57587 57.58925,0 c 8.05182,0 14.53398,6.48215 14.53398,14.53398 l 0,62.98059 c 0,8.05182 -6.48216,14.53398 -14.53398,14.53398 l -57.58925,0 c -8.051827,0 -14.533983,-6.48216 -14.533983,-14.53398 l 0,-62.98059 c 0,-8.05183 6.482156,-14.53398 14.533983,-14.53398 z"
         style="fill:#ffffff;fill-opacity:1;stroke:#008000;stroke-width:0.50639558;stroke-miterlimit:4"
         inkscape:connector-curvature="0" />
      <path
         id="rect2991"
         d="m 222.24828,376.57587 57.58924,0 c 8.05183,0 14.53399,6.48215 14.53399,14.53398 l 0,62.98059 c 0,8.05182 -6.48216,14.53398 -14.53399,14.53398 l -57.58924,0 c -8.05183,0 -14.53399,-6.48216 -14.53399,-14.53398 l 0,-62.98059 c 0,-8.05183 6.48216,-14.53398 14.53399,-14.53398 z"
         style="fill:#ffffff;fill-opacity:1;stroke:#008000;stroke-width:0.50639558;stroke-miterlimit:4"
         inkscape:connector-curvature="0" />
      <path
         id="rect2993"
         d="m 337.10539,376.57587 57.58925,0 c 8.05183,0 14.53398,6.48215 14.53398,14.53398 l 0,62.98059 c 0,8.05182 -6.48215,14.53398 -14.53398,14.53398 l -57.58925,0 c -8.05182,0 -14.53398,-6.48216 -14.53398,-14.53398 l 0,-62.98059 c 0,-8.05183 6.48216,-14.53398 14.53398,-14.53398 z"
         style="fill:#ffffff;fill-opacity:1;stroke:#008000;stroke-width:0.50639558;stroke-miterlimit:4"
         inkscape:connector-curvature="0" />
      <path
         id="rect2995"
         d="m 451.96251,376.57587 57.58925,0 c 8.05182,0 14.53398,6.48215 14.53398,14.53398 l 0,62.98059 c 0,8.05182 -6.48216,14.53398 -14.53398,14.53398 l -57.58925,0 c -8.05183,0 -14.53398,-6.48216 -14.53398,-14.53398 l 0,-62.98059 c 0,-8.05183 6.48215,-14.53398 14.53398,-14.53398 z"
         style="fill:#ffffff;fill-opacity:1;stroke:#008000;stroke-width:0.50639558;stroke-miterlimit:4"
         inkscape:connector-curvature="0" />
      <path
         id="rect3019"
         d="m 107.39113,499.74219 57.58925,0 c 8.05182,0 14.53398,6.48215 14.53398,14.53398 l 0,62.98059 c 0,8.05183 -6.48216,14.53398 -14.53398,14.53398 l -57.58925,0 c -8.051827,0 -14.533983,-6.48215 -14.533983,-14.53398 l 0,-62.98059 c 0,-8.05183 6.482156,-14.53398 14.533983,-14.53398 z"
         style="fill:#ffffff;fill-opacity:1;stroke:#008000;stroke-width:0.50639558;stroke-miterlimit:4"
         inkscape:connector-curvature="0" />
      <path
         id="rect3021"
         d="m 222.24828,499.74219 57.58924,0 c 8.05183,0 14.53399,6.48215 14.53399,14.53398 l 0,62.98059 c 0,8.05183 -6.48216,14.53398 -14.53399,14.53398 l -57.58924,0 c -8.05183,0 -14.53399,-6.48215 -14.53399,-14.53398 l 0,-62.98059 c 0,-8.05183 6.48216,-14.53398 14.53399,-14.53398 z"
         style="fill:#ffffff;fill-opacity:1;stroke:#008000;stroke-width:0.50639558;stroke-miterlimit:4"
         inkscape:connector-curvature="0" />
      <path
         id="rect3023"
         d="m 337.10539,499.74219 57.58925,0 c 8.05183,0 14.53398,6.48215 14.53398,14.53398 l 0,62.98059 c 0,8.05183 -6.48215,14.53398 -14.53398,14.53398 l -57.58925,0 c -8.05182,0 -14.53398,-6.48215 -14.53398,-14.53398 l 0,-62.98059 c 0,-8.05183 6.48216,-14.53398 14.53398,-14.53398 z"
         style="fill:#ffffff;fill-opacity:1;stroke:#008000;stroke-width:0.50639558;stroke-miterlimit:4"
         inkscape:connector-curvature="0" />
      <path
         id="rect3025"
         d="m 451.96251,499.74219 57.58925,0 c 8.05182,0 14.53398,6.48215 14.53398,14.53398 l 0,62.98059 c 0,8.05183 -6.48216,14.53398 -14.53398,14.53398 l -57.58925,0 c -8.05183,0 -14.53398,-6.48215 -14.53398,-14.53398 l 0,-62.98059 c 0,-8.05183 6.48215,-14.53398 14.53398,-14.53398 z"
         style="fill:#ffffff;fill-opacity:1;stroke:#008000;stroke-width:0.50639558;stroke-miterlimit:4"
         inkscape:connector-curvature="0" />
      <path
         id="rect3027"
         d="m 566.81963,499.74219 57.58924,0 c 8.05183,0 14.53399,6.48215 14.53399,14.53398 l 0,62.98059 c 0,8.05183 -6.48216,14.53398 -14.53399,14.53398 l -57.58924,0 c -8.05183,0 -14.53399,-6.48215 -14.53399,-14.53398 l 0,-62.98059 c 0,-8.05183 6.48216,-14.53398 14.53399,-14.53398 z"
         style="fill:#ffffff;fill-opacity:1;stroke:#008000;stroke-width:0.50639558;stroke-miterlimit:4"
         inkscape:connector-curvature="0" />
      <path
         id="rect3031"
         d="m 107.39113,631.74219 57.58925,0 c 8.05182,0 14.53398,6.48215 14.53398,14.53398 l 0,62.98059 c 0,8.05183 -6.48216,14.53398 -14.53398,14.53398 l -57.58925,0 c -8.051827,0 -14.533983,-6.48215 -14.533983,-14.53398 l 0,-62.98059 c 0,-8.05183 6.482156,-14.53398 14.533983,-14.53398 z"
         style="fill:#ffffff;fill-opacity:1;stroke:#008000;stroke-width:0.50639558;stroke-miterlimit:4"
         inkscape:connector-curvature="0" />
      <path
         id="rect3033"
         d="m 222.24828,631.74219 57.58924,0 c 8.05183,0 14.53399,6.48215 14.53399,14.53398 l 0,62.98059 c 0,8.05183 -6.48216,14.53398 -14.53399,14.53398 l -57.58924,0 c -8.05183,0 -14.53399,-6.48215 -14.53399,-14.53398 l 0,-62.98059 c 0,-8.05183 6.48216,-14.53398 14.53399,-14.53398 z"
         style="fill:#ffffff;fill-opacity:1;stroke:#008000;stroke-width:0.50639558;stroke-miterlimit:4"
         inkscape:connector-curvature="0" />
      <path
         id="rect3035"
         d="m 337.10539,631.74219 57.58925,0 c 8.05183,0 14.53398,6.48215 14.53398,14.53398 l 0,62.98059 c 0,8.05183 -6.48215,14.53398 -14.53398,14.53398 l -57.58925,0 c -8.05182,0 -14.53398,-6.48215 -14.53398,-14.53398 l 0,-62.98059 c 0,-8.05183 6.48216,-14.53398 14.53398,-14.53398 z"
         style="fill:#ffffff;fill-opacity:1;stroke:#008000;stroke-width:0.50639558;stroke-miterlimit:4"
         inkscape:connector-curvature="0" />
      <path
         id="rect3037"
         d="m 451.96251,631.74219 57.58925,0 c 8.05182,0 14.53398,6.48215 14.53398,14.53398 l 0,62.98059 c 0,8.05183 -6.48216,14.53398 -14.53398,14.53398 l -57.58925,0 c -8.05183,0 -14.53398,-6.48215 -14.53398,-14.53398 l 0,-62.98059 c 0,-8.05183 6.48215,-14.53398 14.53398,-14.53398 z"
         style="fill:#ffffff;fill-opacity:1;stroke:#008000;stroke-width:0.50639558;stroke-miterlimit:4"
         inkscape:connector-curvature="0" />
      <path
         id="rect3039"
         d="m 568.81963,631.74219 57.58924,0 c 8.05183,0 14.53399,6.48215 14.53399,14.53398 l 0,62.98059 c 0,8.05183 -6.48216,14.53398 -14.53399,14.53398 l -57.58924,0 c -8.05183,0 -14.53399,-6.48215 -14.53399,-14.53398 l 0,-62.98059 c 0,-8.05183 6.48216,-14.53398 14.53399,-14.53398 z"
         style="fill:#ffffff;fill-opacity:1;stroke:#008000;stroke-width:0.50639558;stroke-miterlimit:4"
         inkscape:connector-curvature="0" />
      <g
         transform="matrix(1.1989282,0,0,1.1873406,-311.62639,20.384678)"
         id="g3855">
        <path
           id="rect3043"
           d="m 736.96754,300.27213 48.15063,0 c 6.73217,0 12.15193,5.41976 12.15193,12.15192 l 0,52.65837 c 0,6.73216 -5.41976,12.15192 -12.15193,12.15192 l -48.15063,0 c -6.73217,0 -12.15193,-5.41976 -12.15193,-12.15192 l 0,-52.65837 c 0,-6.73216 5.41976,-12.15192 12.15193,-12.15192 z"
           style="fill:#ff0000;fill-opacity:1;stroke:#008000;stroke-width:0.42339969;stroke-miterlimit:4"
           inkscape:connector-curvature="0" />
        <path
           id="rect3825"
           d="m 736.96754,300.27213 48.15063,0 c 6.73217,0 12.15193,5.41976 12.15193,12.15192 l 0,52.65837 c 0,6.73216 -5.41976,12.15192 -12.15193,12.15192 l -48.15063,0 c -6.73217,0 -12.15193,-5.41976 -12.15193,-12.15192 l 0,-52.65837 c 0,-6.73216 5.41976,-12.15192 12.15193,-12.15192 z"
           style="opacity:0.61493823;fill:url(#radialGradient4369);fill-opacity:1;stroke:url(#radialGradient4371);stroke-width:0.42339969;stroke-miterlimit:4"
           inkscape:connector-curvature="0" />
        <g
           id="g3821"
           transform="matrix(0.16039143,0,0,0.16039143,847.3275,311.03335)"
           style="fill:none;stroke:#ffffff;stroke-width:31.17373466;stroke-miterlimit:4;stroke-dasharray:none">
          <path
             id="path3049"
             d="m -387.32158,144.8531 c 12.03694,81.16605 -44.00327,156.72199 -125.16932,168.75893 -81.16605,12.03694 -156.722,-44.00327 -168.75893,-125.16932 -12.03694,-81.16605 44.00327,-156.721997 125.16932,-168.758936 47.30542,-7.015402 95.09572,9.169122 128.40403,43.484941"
             style="stroke:#ffffff;stroke-linecap:round"
             transform="matrix(-0.43793899,0.8990047,-0.8990047,-0.43793899,-618.453,719.95488)"
             inkscape:connector-curvature="0" />
          <path
             inkscape:connector-curvature="0"
             id="path3819"
             d="m -534.28571,179.12584 c 0,157.64905 0,157.64905 0,157.64905"
             style="fill:none;stroke:#ffffff;stroke-width:31.17373466;stroke-linecap:round;stroke-linejoin:miter;stroke-miterlimit:4;stroke-opacity:1;stroke-dasharray:none" />
        </g>
      </g>
      <g
         id="text3851"
         style="font-size:40px;font-style:normal;font-weight:normal;line-height:125%;letter-spacing:0px;word-spacing:0px;fill:#000000;fill-opacity:1;stroke:none;font-family:Sans">
        <path
           id="path4222"
           style="font-weight:bold;-inkscape-font-specification:Sans Bold"
           d="m 124.7875,406.80594 21.97265,0 0,4.23828 -11.36718,24.92187 -7.32422,0 10.76172,-23.63281 -14.04297,0 0,-5.52734"
           inkscape:connector-curvature="0" />
        <path
           id="path4224"
           style="font-weight:bold;-inkscape-font-specification:Sans Bold"
           d="m 247.2875,422.91922 c -1.40626,1e-5 -2.48699,0.38413 -3.24219,1.15234 -0.75522,0.76824 -1.13282,1.8685 -1.13281,3.30078 -1e-5,1.4323 0.37759,2.53256 1.13281,3.30079 0.7552,0.75521 1.83593,1.13281 3.24219,1.13281 1.39321,0 2.46092,-0.3776 3.20312,-1.13281 0.74217,-0.76823 1.11327,-1.86849 1.11328,-3.30079 -1e-5,-1.4453 -0.37111,-2.54556 -1.11328,-3.30078 -0.7422,-0.76821 -1.80991,-1.15233 -3.20312,-1.15234 m -5.48828,-2.48047 c -1.77084,-0.53384 -3.10548,-1.35415 -4.00391,-2.46094 -0.89844,-1.10675 -1.34766,-2.48695 -1.34766,-4.14062 0,-2.46091 0.91797,-4.33591 2.75391,-5.625 1.83593,-1.28903 4.53124,-1.93357 8.08594,-1.9336 3.52863,3e-5 6.21092,0.64457 8.04687,1.9336 1.83592,1.27607 2.75388,3.15106 2.75391,5.625 -3e-5,1.65367 -0.45575,3.03387 -1.36719,4.14062 -0.89846,1.10679 -2.23309,1.9271 -4.0039,2.46094 1.97914,0.54689 3.47003,1.43882 4.47265,2.67578 1.0156,1.22397 1.52341,2.77345 1.52344,4.64844 -3e-5,2.89063 -0.96357,5.07813 -2.89063,6.5625 -1.91408,1.47135 -4.75913,2.20703 -8.53515,2.20703 -3.78907,0 -6.65365,-0.73568 -8.59375,-2.20703 -1.92709,-1.48437 -2.89063,-3.67187 -2.89063,-6.5625 0,-1.87499 0.5013,-3.42447 1.50391,-4.64844 1.01562,-1.23696 2.51301,-2.12889 4.49219,-2.67578 m 1.75781,-5.83984 c -1e-5,1.15887 0.319,2.0508 0.95703,2.67578 0.65103,0.62502 1.57551,0.93752 2.77344,0.9375 1.17186,2e-5 2.07681,-0.31248 2.71484,-0.9375 0.63801,-0.62498 0.95702,-1.51691 0.95703,-2.67578 -1e-5,-1.15883 -0.31902,-2.04425 -0.95703,-2.65625 -0.63803,-0.62498 -1.54298,-0.93748 -2.71484,-0.9375 -1.19793,2e-5 -2.12241,0.31252 -2.77344,0.9375 -0.63803,0.62502 -0.95704,1.51044 -0.95703,2.65625"
           inkscape:connector-curvature="0" />
        <path
           id="path4226"
           style="font-weight:bold;-inkscape-font-specification:Sans Bold"
           d="m 362.52187,435.32156 0,-5.39062 c 1.19791,0.5599 2.34375,0.98308 3.4375,1.26953 1.09374,0.27344 2.17447,0.41016 3.24219,0.41016 2.23957,0 3.98436,-0.61849 5.23438,-1.85547 1.24998,-1.25 1.98566,-3.09895 2.20703,-5.54688 -0.88544,0.65106 -1.82945,1.13934 -2.83203,1.46485 -1.00262,0.32553 -2.08986,0.48829 -3.26172,0.48828 -2.98178,1e-5 -5.39063,-0.86588 -7.22657,-2.59766 -1.82291,-1.74478 -2.73437,-4.03644 -2.73437,-6.875 0,-3.138 1.01562,-5.65102 3.04687,-7.53906 2.04427,-1.88799 4.77864,-2.832 8.20313,-2.83203 3.80207,3e-5 6.74477,1.28258 8.82812,3.84765 2.08331,2.56513 3.12498,6.19143 3.125,10.87891 -2e-5,4.81772 -1.21747,8.60678 -3.65234,11.36719 -2.43491,2.74739 -5.77475,4.12109 -10.01953,4.12109 -1.3672,0 -2.67579,-0.10417 -3.92578,-0.3125 -1.25001,-0.19531 -2.47397,-0.49479 -3.67188,-0.89844 m 9.27735,-14.04297 c 1.31509,2e-5 2.30467,-0.42316 2.96875,-1.26953 0.66404,-0.85935 0.99607,-2.14191 0.99609,-3.84765 -2e-5,-1.69269 -0.33205,-2.96873 -0.99609,-3.82813 -0.66408,-0.85935 -1.65366,-1.28904 -2.96875,-1.28906 -1.31512,2e-5 -2.3047,0.42971 -2.96875,1.28906 -0.66407,0.8594 -0.99611,2.13544 -0.9961,3.82813 -10e-6,1.70574 0.33203,2.9883 0.9961,3.84765 0.66405,0.84637 1.65363,1.26955 2.96875,1.26953"
           inkscape:connector-curvature="0" />
      </g>
      <g
         id="text3880"
         style="font-size:40px;font-style:normal;font-weight:bold;line-height:125%;letter-spacing:0px;word-spacing:0px;fill:#000000;fill-opacity:1;stroke:none;font-family:Sans;-inkscape-font-specification:Sans Bold">
        <path
           id="path4215"
           d="m 130.24707,537.33875 -8.24219,12.20703 8.24219,0 0,-12.20703 m -1.25,-6.19141 8.35938,0 0,18.39844 4.16015,0 0,5.44922 -4.16015,0 0,5.3125 -7.10938,0 0,-5.3125 -12.92969,0 0,-6.44532 11.67969,-17.40234"
           inkscape:connector-curvature="0" />
        <path
           id="path4217"
           d="m 244.91504,531.14734 18.69141,0 0,5.52734 -12.69532,0 0,4.51172 c 0.57291,-0.15623 1.14582,-0.27342 1.71875,-0.35156 0.58593,-0.0911 1.1914,-0.1367 1.81641,-0.13672 3.55467,2e-5 6.32159,0.89195 8.30078,2.67578 1.97914,1.77085 2.96873,4.24481 2.96875,7.42188 -2e-5,3.15104 -1.08075,5.61849 -3.24219,7.40234 -2.14845,1.78385 -5.13673,2.67578 -8.96484,2.67578 -1.65366,0 -3.29428,-0.16276 -4.92188,-0.48828 -1.61459,-0.3125 -3.22266,-0.79427 -4.82421,-1.44531 l 0,-5.91797 c 1.58853,0.91146 3.09244,1.59506 4.51171,2.05078 1.43229,0.45573 2.77994,0.6836 4.04297,0.68359 1.82291,10e-6 3.2552,-0.4427 4.29688,-1.32812 1.05467,-0.89843 1.58201,-2.10937 1.58203,-3.63281 -2e-5,-1.53645 -0.52736,-2.74739 -1.58203,-3.63282 -1.04168,-0.8854 -2.47397,-1.32811 -4.29688,-1.32812 -1.08074,10e-6 -2.23308,0.14324 -3.45703,0.42969 -1.22396,0.27345 -2.53907,0.70313 -3.94531,1.28906 l 0,-16.40625"
           inkscape:connector-curvature="0" />
        <path
           id="path4219"
           d="m 366.39941,545.91296 c -1.31511,2e-5 -2.3047,0.42971 -2.96875,1.28907 -0.65105,0.84636 -0.97657,2.1224 -0.97656,3.82812 -10e-6,1.70574 0.32551,2.98829 0.97656,3.84766 0.66405,0.84636 1.65364,1.26953 2.96875,1.26953 1.32811,0 2.3177,-0.42317 2.96875,-1.26953 0.66405,-0.85937 0.99608,-2.14192 0.9961,-3.84766 -2e-5,-1.70572 -0.33205,-2.98176 -0.9961,-3.82812 -0.65105,-0.85936 -1.64064,-1.28905 -2.96875,-1.28907 m 9.29688,-14.0039 0,5.39062 c -1.237,-0.58591 -2.40237,-1.0156 -3.49609,-1.28906 -1.09377,-0.28643 -2.16148,-0.42966 -3.20313,-0.42969 -2.2396,3e-5 -3.98439,0.62503 -5.23437,1.875 -1.25002,1.237 -1.97918,3.07945 -2.1875,5.52735 0.85936,-0.63801 1.79035,-1.11327 2.79296,-1.42578 1.00259,-0.32551 2.09634,-0.48827 3.28125,-0.48829 2.98176,2e-5 5.3841,0.87242 7.20704,2.61719 1.83591,1.74481 2.75388,4.02996 2.7539,6.85547 -2e-5,3.12501 -1.02216,5.63151 -3.0664,7.51953 -2.0443,1.875 -4.78518,2.8125 -8.22266,2.8125 -3.78907,0 -6.72527,-1.27604 -8.80859,-3.82812 -2.07032,-2.5651 -3.10548,-6.19791 -3.10547,-10.89844 -1e-5,-4.81769 1.21093,-8.60024 3.63281,-11.34766 2.43489,-2.76039 5.76822,-4.14059 10,-4.14062 1.34113,3e-5 2.64321,0.10419 3.90625,0.3125 1.263,0.20836 2.513,0.52086 3.75,0.9375"
           inkscape:connector-curvature="0" />
      </g>
      <g
         id="text3884"
         style="font-size:40px;font-style:normal;font-weight:normal;line-height:125%;letter-spacing:0px;word-spacing:0px;fill:#000000;fill-opacity:1;stroke:none;font-family:Sans">
        <path
           id="path4208"
           style="font-weight:bold;-inkscape-font-specification:Sans Bold"
           d="m 118.58603,687.13171 6.64062,0 0,-18.84765 -6.8164,1.40625 0,-5.11719 6.77734,-1.40625 7.14844,0 0,23.96484 6.64062,0 0,5.19532 -20.39062,0 0,-5.19532"
           inkscape:connector-curvature="0" />
        <path
           id="path4210"
           style="font-weight:bold;-inkscape-font-specification:Sans Bold"
           d="m 250.57822,686.79968 12.83203,0 0,5.52735 -21.19141,0 0,-5.52735 10.64453,-9.39453 c 0.95051,-0.85936 1.65363,-1.6992 2.10938,-2.51953 0.45571,-0.82029 0.68357,-1.67316 0.68359,-2.55859 -2e-5,-1.36717 -0.46225,-2.46743 -1.38672,-3.30078 -0.91147,-0.83331 -2.12892,-1.24998 -3.65234,-1.25 -1.17189,2e-5 -2.45444,0.25393 -3.84766,0.76171 -1.39323,0.49482 -2.88412,1.23701 -4.47265,2.22657 l 0,-6.40625 c 1.6927,-0.55987 3.36588,-0.98305 5.01953,-1.26953 1.65363,-0.29945 3.27473,-0.44919 4.86328,-0.44922 3.48957,3e-5 6.1979,0.76825 8.125,2.30468 1.94008,1.53649 2.91013,3.67841 2.91016,6.42579 -3e-5,1.58856 -0.41018,3.07293 -1.23047,4.45312 -0.82034,1.3672 -2.5456,3.20314 -5.17578,5.50781 l -6.23047,5.46875"
           inkscape:connector-curvature="0" />
        <path
           id="path4212"
           style="font-weight:bold;-inkscape-font-specification:Sans Bold"
           d="m 368.93759,676.60437 c 1.96613,0.50783 3.45701,1.39324 4.47266,2.65625 1.02862,1.25001 1.54294,2.84506 1.54297,4.78516 -3e-5,2.89063 -1.1068,5.09115 -3.32032,6.60156 -2.21356,1.49739 -5.44272,2.24609 -9.6875,2.24609 -1.4974,0 -3.00131,-0.1237 -4.51171,-0.37109 -1.49741,-0.23438 -2.98178,-0.59245 -4.45313,-1.07422 l 0,-5.80078 c 1.40625,0.70313 2.79947,1.23698 4.17969,1.60156 1.39322,0.35157 2.7604,0.52735 4.10156,0.52735 1.99217,0 3.51561,-0.34505 4.57031,-1.03516 1.06769,-0.6901 1.60155,-1.67968 1.60157,-2.96875 -2e-5,-1.32812 -0.5469,-2.33072 -1.64063,-3.00781 -1.08074,-0.6901 -2.6823,-1.03515 -4.80469,-1.03516 l -3.00781,0 0,-4.84375 3.16406,0 c 1.88801,2e-5 3.29426,-0.29295 4.21875,-0.87891 0.92447,-0.59894 1.38671,-1.50388 1.38672,-2.71484 -10e-6,-1.11977 -0.44923,-1.98565 -1.34765,-2.59766 -0.89846,-0.61195 -2.16799,-0.91794 -3.8086,-0.91796 -1.21095,2e-5 -2.4349,0.13674 -3.67187,0.41015 -1.23699,0.27346 -2.46746,0.67711 -3.69141,1.21094 l 0,-5.50781 c 1.48437,-0.41664 2.95572,-0.72914 4.41406,-0.9375 1.45833,-0.20831 2.89062,-0.31247 4.29688,-0.3125 3.78904,3e-5 6.62107,0.62503 8.49609,1.875 1.888,1.237 2.83201,3.10549 2.83203,5.60547 -2e-5,1.70574 -0.44924,3.10548 -1.34765,4.19921 -0.89846,1.08075 -2.22659,1.84247 -3.98438,2.28516"
           inkscape:connector-curvature="0" />
      </g>
      <g
         id="text3888"
         style="font-size:40px;font-style:normal;font-weight:normal;line-height:125%;letter-spacing:0px;word-spacing:0px;fill:#000000;fill-opacity:1;stroke:none;font-family:Sans">
        <path
           id="path4203"
           style="font-weight:bold"
           d="m 569.20502,531.1864 9.57031,0 6.64062,15.60547 6.67969,-15.60547 9.55078,0 0,29.16016 -7.10937,0 0,-21.32813 -6.71875,15.72266 -4.76563,0 -6.71875,-15.72266 0,21.32813 -7.1289,0 0,-29.16016"
           inkscape:connector-curvature="0" />
        <path
           id="path4205"
           style="font-weight:bold"
           d="m 624.45892,535.26843 0,10.23438 10.19532,0 0,4.60937 -10.19532,0 0,10.23438 -4.64843,0 0,-10.23438 -10.19532,0 0,-4.60937 10.19532,0 0,-10.23438 4.64843,0"
           inkscape:connector-curvature="0" />
      </g>
      <g
         id="text3892"
         style="font-size:40px;font-style:normal;font-weight:normal;line-height:125%;letter-spacing:0px;word-spacing:0px;fill:#000000;fill-opacity:1;stroke:none;font-family:Sans">
        <path
           id="path4198"
           style="font-weight:bold"
           d="m 577.48926,663.1864 9.57031,0 6.64063,15.60547 6.67968,-15.60547 9.55078,0 0,29.16016 -7.10937,0 0,-21.32813 -6.71875,15.72266 -4.76563,0 -6.71875,-15.72266 0,21.32813 -7.1289,0 0,-29.16016"
           inkscape:connector-curvature="0" />
        <path
           id="path4200"
           style="font-weight:bold"
           d="m 615.8291,677.99109 12.26563,0 0,5.68359 -12.26563,0 0,-5.68359"
           inkscape:connector-curvature="0" />
      </g>
      <path
         id="rect3904"
         d="m 107.39113,749.74219 57.58925,0 c 8.05182,0 14.53398,6.48215 14.53398,14.53398 l 0,62.98059 c 0,8.05183 -6.48216,14.53398 -14.53398,14.53398 l -57.58925,0 c -8.051827,0 -14.533983,-6.48215 -14.533983,-14.53398 l 0,-62.98059 c 0,-8.05183 6.482156,-14.53398 14.533983,-14.53398 z"
         style="fill:#ffffff;fill-opacity:1;stroke:#008000;stroke-width:0.50639558;stroke-miterlimit:4"
         inkscape:connector-curvature="0" />
      <path
         id="rect3906"
         d="m 222.24828,749.74219 57.58924,0 c 8.05183,0 14.53399,6.48215 14.53399,14.53398 l 0,62.98059 c 0,8.05183 -6.48216,14.53398 -14.53399,14.53398 l -57.58924,0 c -8.05183,0 -14.53399,-6.48215 -14.53399,-14.53398 l 0,-62.98059 c 0,-8.05183 6.48216,-14.53398 14.53399,-14.53398 z"
         style="fill:#ffffff;fill-opacity:1;stroke:#008000;stroke-width:0.50639558;stroke-miterlimit:4"
         inkscape:connector-curvature="0" />
      <path
         id="rect3908"
         d="m 337.10539,749.74219 57.58925,0 c 8.05183,0 14.53398,6.48215 14.53398,14.53398 l 0,62.98059 c 0,8.05183 -6.48215,14.53398 -14.53398,14.53398 l -57.58925,0 c -8.05182,0 -14.53398,-6.48215 -14.53398,-14.53398 l 0,-62.98059 c 0,-8.05183 6.48216,-14.53398 14.53398,-14.53398 z"
         style="fill:#ffffff;fill-opacity:1;stroke:#008000;stroke-width:0.50639558;stroke-miterlimit:4"
         inkscape:connector-curvature="0" />
      <path
         id="rect3910"
         d="m 451.96251,749.74219 57.58925,0 c 8.05182,0 14.53398,6.48215 14.53398,14.53398 l 0,62.98059 c 0,8.05183 -6.48216,14.53398 -14.53398,14.53398 l -57.58925,0 c -8.05183,0 -14.53398,-6.48215 -14.53398,-14.53398 l 0,-62.98059 c 0,-8.05183 6.48215,-14.53398 14.53398,-14.53398 z"
         style="fill:#ffffff;fill-opacity:1;stroke:#008000;stroke-width:0.50639558;stroke-miterlimit:4"
         inkscape:connector-curvature="0" />
      <path
         id="rect3912"
         d="m 568.81963,749.74219 57.58924,0 c 8.05183,0 14.53399,6.48215 14.53399,14.53398 l 0,62.98059 c 0,8.05183 -6.48216,14.53398 -14.53399,14.53398 l -57.58924,0 c -8.05183,0 -14.53399,-6.48215 -14.53399,-14.53398 l 0,-62.98059 c 0,-8.05183 6.48216,-14.53398 14.53399,-14.53398 z"
         style="fill:#ffffff;fill-opacity:1;stroke:#008000;stroke-width:0.50639558;stroke-miterlimit:4"
         inkscape:connector-curvature="0" />
      <g
         id="text3918"
         style="font-size:40px;font-style:normal;font-weight:normal;line-height:125%;letter-spacing:0px;word-spacing:0px;fill:#000000;fill-opacity:1;stroke:none;font-family:Sans">
        <path
           id="path4190"
           style="font-weight:bold"
           d="m 136.43906,795.71765 c -1e-5,-3.64581 -0.34507,-6.21092 -1.03515,-7.69531 -0.6771,-1.49737 -1.82293,-2.24607 -3.4375,-2.24609 -1.6146,2e-5 -2.76694,0.74872 -3.45703,2.24609 -0.69012,1.48439 -1.03517,4.0495 -1.03516,7.69531 -1e-5,3.68491 0.34504,6.28256 1.03516,7.79297 0.69009,1.51042 1.84243,2.26563 3.45703,2.26563 1.60154,0 2.74738,-0.75521 3.4375,-2.26563 0.69008,-1.51041 1.03514,-4.10806 1.03515,-7.79297 m 7.51954,0.0586 c -3e-5,4.83073 -1.0417,8.5612 -3.125,11.1914 -2.08336,2.61719 -5.03908,3.92578 -8.86719,3.92578 -3.84116,0 -6.80339,-1.30859 -8.88672,-3.92578 -2.08334,-2.6302 -3.125,-6.36067 -3.125,-11.1914 0,-4.84374 1.04166,-8.5742 3.125,-11.19141 2.08333,-2.63018 5.04556,-3.94528 8.88672,-3.94531 3.82811,3e-5 6.78383,1.31513 8.86719,3.94531 2.0833,2.61721 3.12497,6.34767 3.125,11.19141"
           inkscape:connector-curvature="0" />
      </g>
      <g
         id="text3922"
         style="font-size:40px;font-style:normal;font-weight:normal;line-height:125%;letter-spacing:0px;word-spacing:0px;fill:#000000;fill-opacity:1;stroke:none;font-family:Sans">
        <path
           id="path4187"
           style="font-weight:bold"
           d="m 586.76636,789.00867 25.03906,0 0,4.58984 -25.03906,0 0,-4.58984 m 0,8.88672 25.03906,0 0,4.6289 -25.03906,0 0,-4.6289"
           inkscape:connector-curvature="0" />
      </g>
      <g
         id="text3926"
         style="font-size:40px;font-style:normal;font-weight:normal;line-height:125%;letter-spacing:0px;word-spacing:0px;fill:#000000;fill-opacity:1;stroke:none;font-family:Sans">
        <path
           id="path4184"
           style="font-weight:bold"
           d="m 481.06189,783.22742 0,10.23437 10.19531,0 0,4.60938 -10.19531,0 0,10.23437 -4.64844,0 0,-10.23437 -10.19531,0 0,-4.60938 10.19531,0 0,-10.23437 4.64844,0"
           inkscape:connector-curvature="0" />
      </g>
      <g
         id="text3930"
         style="font-size:40px;font-style:normal;font-weight:normal;line-height:125%;letter-spacing:0px;word-spacing:0px;fill:#000000;fill-opacity:1;stroke:none;font-family:Sans">
        <path
           id="path4181"
           style="font-weight:bold"
           d="m 488.12195,675.91101 0,3.71094 -20,0 0,-3.71094 20,0"
           inkscape:connector-curvature="0" />
      </g>
      <g
         id="text3934"
         style="font-size:40px;font-style:normal;font-weight:normal;line-height:125%;letter-spacing:0px;word-spacing:0px;fill:#000000;fill-opacity:1;stroke:none;font-family:Sans">
        <path
           id="path4178"
           style="font-weight:bold"
           d="m 486.04382,545.46375 10.11719,14.88281 -7.83203,0 -6.81641,-9.96094 -6.75781,9.96094 -7.87109,0 10.11718,-14.88281 -9.72656,-14.27735 7.85156,0 6.38672,9.39453 6.36719,-9.39453 7.89063,0 -9.72657,14.27735"
           inkscape:connector-curvature="0" />
      </g>
      <g
         id="text3938"
         style="font-size:40px;font-style:normal;font-weight:normal;line-height:125%;letter-spacing:0px;word-spacing:0px;fill:#000000;fill-opacity:1;stroke:none;font-family:Sans">
        <path
           id="path4175"
           style="font-weight:bold"
           d="m 364.3446,779.33093 4.33594,0 -10.29297,32.8711 -4.3164,0 10.27343,-32.8711"
           inkscape:connector-curvature="0" />
      </g>
      <g
         id="text3942"
         style="font-size:40px;font-style:normal;font-weight:normal;line-height:125%;letter-spacing:0px;word-spacing:0px;fill:#000000;fill-opacity:1;stroke:none;font-family:Sans">
        <path
           id="path4172"
           style="font-weight:bold"
           d="m 248.67093,791.98718 7.03125,0 0,7.5586 -7.03125,0 0,-7.5586"
           inkscape:connector-curvature="0" />
      </g>
      <g
         id="text3946"
         style="font-size:40px;font-style:normal;font-weight:normal;line-height:125%;letter-spacing:0px;word-spacing:0px;fill:#000000;fill-opacity:1;stroke:none;font-family:Sans">
        <path
           id="path4167"
           style="font-weight:bold"
           d="m 480.49243,435.55914 c -1.38023,0.71615 -2.81903,1.25651 -4.3164,1.6211 -1.49742,0.36458 -3.05992,0.54687 -4.6875,0.54687 -4.85679,0 -8.70444,-1.35416 -11.54297,-4.0625 -2.83855,-2.72135 -4.25782,-6.40624 -4.25782,-11.05469 0,-4.66143 1.41927,-8.34633 4.25782,-11.05468 2.83853,-2.72133 6.68618,-4.082 11.54297,-4.08203 1.62758,3e-5 3.19008,0.18232 4.6875,0.54687 1.49737,0.36461 2.93617,0.90498 4.3164,1.62109 l 0,6.03516 c -1.39325,-0.9505 -2.76695,-1.64711 -4.12109,-2.08984 -1.35419,-0.44269 -2.77997,-0.66404 -4.27735,-0.66407 -2.6823,3e-5 -4.79168,0.8594 -6.32812,2.57813 -1.53647,1.71877 -2.3047,4.08856 -2.30469,7.10937 -1e-5,3.00783 0.76822,5.37111 2.30469,7.08985 1.53644,1.71875 3.64582,2.57813 6.32812,2.57812 1.49738,10e-6 2.92316,-0.22135 4.27735,-0.66406 1.35414,-0.4427 2.72784,-1.13932 4.12109,-2.08984 l 0,6.03515"
           inkscape:connector-curvature="0" />
        <path
           id="path4169"
           style="font-weight:bold"
           d="m 486.74243,408.00055 20.29297,0 0,5.68359 -12.77344,0 0,5.42969 12.01172,0 0,5.68359 -12.01172,0 0,6.67969 13.20313,0 0,5.6836 -20.72266,0 0,-29.16016"
           inkscape:connector-curvature="0" />
      </g>
      <path
         id="rect3958"
         d="m 91.103514,352.56241 561.305846,0 c 11.46074,0 20.68726,9.22651 20.68726,20.68725 l 0,489.01124 c 0,11.46074 -9.22652,20.68725 -20.68726,20.68725 l -561.305846,0 c -11.460739,0 -20.687254,-9.22651 -20.687254,-20.68725 l 0,-489.01124 c 0,-11.46074 9.226515,-20.68725 20.687254,-20.68725 z"
         style="opacity:0.61493823;fill:none;stroke:#ffffff;stroke-width:3;stroke-linecap:round;stroke-miterlimit:4"
         inkscape:connector-curvature="0" />
      <g
         transform="translate(-7.1479797,0)"
         id="g3990">
        <path
           id="rect2987"
           d="m 124.43405,186.02791 509.50565,0 c 8.05182,0 14.53398,6.48215 14.53398,14.53398 l 0,62.98059 c 0,8.05183 -6.48216,14.53398 -14.53398,14.53398 l -509.50565,0 c -8.05182,0 -14.53398,-6.48215 -14.53398,-14.53398 l 0,-62.98059 c 0,-8.05183 6.48216,-14.53398 14.53398,-14.53398 z"
           style="fill:#ffffff;fill-opacity:1;stroke:#008000;stroke-width:1.26243806;stroke-miterlimit:4"
           inkscape:connector-curvature="0" />
        <path
           id="rect3960"
           d="m 116.65281,-293.72299 525.84029,0 c 11.85062,0 21.39101,9.54039 21.39101,21.39101 l 0,79.21306 c 0,11.85062 -9.54039,21.39101 -21.39101,21.39101 l -525.84029,0 c -11.85062,0 -21.391015,-9.54039 -21.391015,-21.39101 l 0,-79.21306 c 0,-11.85062 9.540395,-21.39101 21.391015,-21.39101 z"
           style="opacity:0.61493823;fill:none;stroke:#ffffff;stroke-width:2.73884082;stroke-linecap:round;stroke-miterlimit:4"
           transform="scale(1,-1)"
           inkscape:connector-curvature="0" />
        <g
           id="text3962"
           style="font-size:54.81812668px;font-style:normal;font-weight:normal;line-height:125%;letter-spacing:0px;word-spacing:0px;fill:#000000;fill-opacity:1;stroke:none;font-family:Sans"
           transform="scale(0.92648695,1.079346)">
          <path
             id="path4145"
             style="font-weight:bold;-inkscape-font-specification:Sans Bold"
             d="m 300.2043,230.80301 9.10067,0 0,-25.82983 -9.34157,1.9272 0,-7.01287 9.28804,-1.9272 9.79659,0 0,32.8427 9.10067,0 0,7.11993 -27.9444,0 0,-7.11993"
             inkscape:connector-curvature="0" />
          <path
             id="path4147"
             style="font-weight:bold;-inkscape-font-specification:Sans Bold"
             d="m 347.68837,230.34798 17.58569,0 0,7.57496 -29.04183,0 0,-7.57496 14.58784,-12.87477 c 1.30262,-1.17771 2.26622,-2.32867 2.89079,-3.4529 0.62454,-1.12417 0.93682,-2.29298 0.93684,-3.50643 -2e-5,-1.87364 -0.6335,-3.38149 -1.90043,-4.52357 -1.24914,-1.14201 -2.91759,-1.71303 -5.00537,-1.71306 -1.60602,3e-5 -3.36369,0.348 -5.27303,1.0439 -1.90937,0.67812 -3.95255,1.69525 -6.12957,3.0514 l 0,-8.77947 c 2.31977,-0.76727 4.61278,-1.34721 6.87903,-1.73983 2.26623,-0.41038 4.48786,-0.61559 6.6649,-0.61564 4.78229,5e-5 8.49393,1.05287 11.13493,3.15847 2.65879,2.10568 3.9882,5.04109 3.98824,8.80623 -4e-5,2.17705 -0.56214,4.21132 -1.6863,6.1028 -1.12423,1.87369 -3.48862,4.38975 -7.09317,7.5482 l -8.53856,7.49467"
             inkscape:connector-curvature="0" />
          <path
             id="path4149"
             style="font-weight:bold;-inkscape-font-specification:Sans Bold"
             d="m 395.54716,216.37578 c 2.69448,0.69595 4.73767,1.90937 6.12957,3.64027 1.40968,1.71308 2.11453,3.89902 2.11456,6.55783 -3e-5,3.96147 -1.51681,6.97718 -4.55033,9.04713 -3.03358,2.05211 -7.459,3.07817 -13.27626,3.07817 -2.05213,0 -4.11316,-0.16953 -6.1831,-0.50857 -2.05212,-0.3212 -4.08639,-0.81192 -6.1028,-1.47217 l 0,-7.9497 c 1.92719,0.96361 3.83655,1.69523 5.72806,2.19487 1.90935,0.48181 3.78301,0.72271 5.621,0.7227 2.73018,1e-5 4.81798,-0.47287 6.2634,-1.41863 1.46322,-0.94575 2.19484,-2.30193 2.19487,-4.06854 -3e-5,-1.82012 -0.74949,-3.19414 -2.2484,-4.12206 -1.48111,-0.94574 -3.67597,-1.41862 -6.5846,-1.41863 l -4.12207,0 0,-6.63814 4.3362,0 c 2.58743,3e-5 4.51463,-0.40147 5.7816,-1.2045 1.26694,-0.82082 1.90041,-2.061 1.90044,-3.72056 -3e-5,-1.5346 -0.61566,-2.72125 -1.8469,-3.55997 -1.23129,-0.83866 -2.97112,-1.258 -5.2195,-1.25803 -1.65955,3e-5 -3.33693,0.1874 -5.03214,0.5621 -1.69523,0.37476 -3.38153,0.92794 -5.0589,1.65953 l 0,-7.5482 c 2.03426,-0.57098 4.05068,-0.99925 6.04927,-1.2848 1.99856,-0.28547 3.96145,-0.42822 5.88867,-0.42827 5.19271,5e-5 9.07387,0.85658 11.64349,2.5696 2.58742,1.69526 3.88114,4.25594 3.88117,7.68204 -3e-5,2.33765 -0.61566,4.25592 -1.8469,5.75483 -1.2313,1.48111 -3.05143,2.52501 -5.4604,3.1317"
             inkscape:connector-curvature="0" />
          <path
             id="path4151"
             style="font-weight:bold;-inkscape-font-specification:Sans Bold"
             d="m 428.30956,206.44535 -11.29553,16.72916 11.29553,0 0,-16.72916 m -1.71307,-8.48504 11.45613,0 0,25.2142 5.7013,0 0,7.4679 -5.7013,0 0,7.28053 -9.74306,0 0,-7.28053 -17.71953,0 0,-8.833 16.00646,-23.8491"
             inkscape:connector-curvature="0" />
          <path
             id="path4153"
             style="font-weight:bold;-inkscape-font-specification:Sans Bold"
             d="m 452.05159,197.96031 25.6157,0 0,7.57497 -17.39833,0 0,6.1831 c 0.78514,-0.21411 1.57029,-0.37471 2.35546,-0.4818 0.80299,-0.12488 1.63275,-0.18734 2.4893,-0.18737 4.87151,3e-5 8.66345,1.22237 11.37583,3.66704 2.71233,2.42686 4.0685,5.8173 4.06854,10.17133 -4e-5,4.31836 -1.48112,7.69988 -4.44327,10.14456 -2.94436,2.44469 -7.03965,3.66704 -12.2859,3.66704 -2.26626,0 -4.51465,-0.22306 -6.7452,-0.66917 -2.21272,-0.42827 -4.4165,-1.08851 -6.61136,-1.98073 l 0,-8.1103 c 2.17701,1.24912 4.23804,2.18595 6.1831,2.8105 1.96287,0.62456 3.80977,0.93684 5.5407,0.93683 2.4982,1e-5 4.46109,-0.6067 5.88866,-1.82013 1.44538,-1.23126 2.16808,-2.89079 2.1681,-4.9786 -2e-5,-2.10563 -0.72272,-3.76516 -2.1681,-4.9786 -1.42757,-1.2134 -3.39046,-1.82011 -5.88866,-1.82013 -1.48111,2e-5 -3.06034,0.1963 -4.7377,0.58886 -1.67739,0.37475 -3.47968,0.96362 -5.40687,1.7666 l 0,-22.484"
             inkscape:connector-curvature="0" />
          <path
             id="path4155"
             style="font-weight:bold;-inkscape-font-specification:Sans Bold"
             d="m 504.19305,218.19591 c -1.80231,2e-5 -3.15849,0.58889 -4.06854,1.7666 -0.89223,1.15991 -1.33835,2.90866 -1.33833,5.24627 -2e-5,2.33763 0.4461,4.09531 1.33833,5.27303 0.91005,1.1599 2.26623,1.73984 4.06854,1.73983 1.82011,1e-5 3.17628,-0.57993 4.06853,-1.73983 0.91004,-1.17772 1.36507,-2.9354 1.3651,-5.27303 -3e-5,-2.33761 -0.45506,-4.08636 -1.3651,-5.24627 -0.89225,-1.17771 -2.24842,-1.76658 -4.06853,-1.7666 m 12.74093,-19.1917 0,7.3876 c -1.69526,-0.80296 -3.29233,-1.39183 -4.79124,-1.7666 -1.49896,-0.39254 -2.9622,-0.58883 -4.38973,-0.58886 -3.06926,3e-5 -5.46042,0.85656 -7.17346,2.5696 -1.71309,1.69525 -2.71237,4.22023 -2.99787,7.57496 1.17772,-0.87435 2.45359,-1.52567 3.82763,-1.95396 1.37401,-0.44609 2.87294,-0.66914 4.4968,-0.66917 4.08635,3e-5 7.37865,1.1956 9.8769,3.58673 2.51603,2.39118 3.77406,5.52287 3.7741,9.3951 -4e-5,4.28268 -1.40082,7.71773 -4.20237,10.30517 -2.8016,2.5696 -6.55785,3.8544 -11.26876,3.8544 -5.19275,0 -9.21667,-1.74876 -12.07177,-5.24627 -2.83727,-3.51535 -4.2559,-8.49394 -4.2559,-14.9358 0,-6.60242 1.65953,-11.78622 4.9786,-15.55143 3.3369,-3.78298 7.90508,-5.67449 13.70454,-5.67453 1.83795,4e-5 3.62239,0.14279 5.35333,0.42826 1.73088,0.28556 3.44394,0.71382 5.1392,1.2848"
             inkscape:connector-curvature="0" />
          <path
             id="path4157"
             style="font-weight:bold;-inkscape-font-specification:Sans Bold"
             d="m 526.14172,197.96031 30.11249,0 0,5.80837 -15.57819,34.15426 -10.0375,0 14.74843,-32.38766 -19.24523,0 0,-7.57497"
             inkscape:connector-curvature="0" />
          <path
             id="path4159"
             style="font-weight:bold;-inkscape-font-specification:Sans Bold"
             d="m 579.67505,220.04281 c -1.92721,2e-5 -3.4083,0.52643 -4.44326,1.57924 -1.03499,1.05283 -1.55248,2.56069 -1.55247,4.52356 -10e-6,1.9629 0.51748,3.47075 1.55247,4.52357 1.03496,1.03498 2.51605,1.55247 4.44326,1.55246 1.90934,1e-5 3.37258,-0.51748 4.38974,-1.55246 1.01711,-1.05282 1.52567,-2.56067 1.5257,-4.52357 -3e-5,-1.98072 -0.50859,-3.48857 -1.5257,-4.52356 -1.01716,-1.05281 -2.4804,-1.57922 -4.38974,-1.57924 m -7.52143,-3.39936 c -2.42685,-0.7316 -4.2559,-1.8558 -5.48716,-3.3726 -1.23128,-1.51676 -1.84691,-3.40826 -1.8469,-5.67454 -10e-6,-3.37256 1.25802,-5.94216 3.7741,-7.7088 2.51605,-1.76656 6.20985,-2.64985 11.08139,-2.6499 4.83582,5e-5 8.51178,0.88334 11.02787,2.6499 2.51603,1.7488 3.77407,4.31839 3.7741,7.7088 -3e-5,2.26628 -0.62459,4.15778 -1.87367,5.67454 -1.23129,1.5168 -3.06035,2.641 -5.48716,3.3726 2.71232,0.74948 4.75551,1.97183 6.12956,3.66703 1.39184,1.67739 2.08777,3.80088 2.0878,6.37046 -3e-5,3.96148 -1.32052,6.95934 -3.96146,8.9936 -2.62316,2.01643 -6.52217,3.02464 -11.69704,3.02464 -5.19274,0 -9.11852,-1.00821 -11.77733,-3.02464 -2.64098,-2.03426 -3.96147,-5.03212 -3.96146,-8.9936 -10e-6,-2.56958 0.687,-4.69307 2.06103,-6.37046 1.39186,-1.6952 3.44397,-2.91755 6.15633,-3.66703 m 2.409,-8.00324 c -1e-5,1.58819 0.43718,2.81053 1.31157,3.66704 0.8922,0.85655 2.15916,1.28482 3.80086,1.2848 1.60598,2e-5 2.84617,-0.42825 3.72057,-1.2848 0.87435,-0.85651 1.31154,-2.07885 1.31157,-3.66704 -3e-5,-1.58812 -0.43722,-2.80154 -1.31157,-3.64026 -0.8744,-0.8565 -2.11459,-1.28477 -3.72057,-1.2848 -1.6417,3e-5 -2.90866,0.4283 -3.80086,1.2848 -0.87439,0.85656 -1.31158,2.06998 -1.31157,3.64026"
             inkscape:connector-curvature="0" />
          <path
             id="path4161"
             style="font-weight:bold;-inkscape-font-specification:Sans Bold"
             d="m 604.19331,237.03964 0,-7.3876 c 1.64168,0.76732 3.21199,1.34727 4.71094,1.73984 1.49892,0.37474 2.98,0.5621 4.44326,0.5621 3.06923,0 5.46038,-0.84761 7.17347,-2.54284 1.71304,-1.71305 2.72125,-4.24696 3.02463,-7.60173 -1.21345,0.89224 -2.50717,1.5614 -3.88117,2.0075 -1.37404,0.44613 -2.86405,0.66918 -4.47003,0.66917 -4.08639,1e-5 -7.38761,-1.18664 -9.90366,-3.55997 -2.49823,-2.39113 -3.74734,-5.53175 -3.74734,-9.42186 0,-4.30048 1.39186,-7.74446 4.1756,-10.33194 2.80157,-2.5874 6.5489,-3.88112 11.242,-3.88116 5.21055,4e-5 9.24339,1.75771 12.09853,5.27303 2.85508,3.51539 4.28263,8.48506 4.28267,14.90903 -4e-5,6.60246 -1.66849,11.79519 -5.00537,15.5782 -3.33693,3.76518 -7.91403,5.64777 -13.7313,5.64777 -1.87368,0 -3.66704,-0.14276 -5.3801,-0.42827 -1.71307,-0.26767 -3.39045,-0.67809 -5.03213,-1.23127 m 12.71417,-19.24523 c 1.80227,2e-5 3.15844,-0.57992 4.06853,-1.73983 0.91004,-1.17771 1.36508,-2.93539 1.3651,-5.27303 -2e-5,-2.31975 -0.45506,-4.06851 -1.3651,-5.24627 -0.91009,-1.1777 -2.26626,-1.76657 -4.06853,-1.7666 -1.80231,3e-5 -3.15848,0.5889 -4.06854,1.7666 -0.91008,1.17776 -1.36511,2.92652 -1.3651,5.24627 -10e-6,2.33764 0.45502,4.09532 1.3651,5.27303 0.91006,1.15991 2.26623,1.73985 4.06854,1.73983"
             inkscape:connector-curvature="0" />
          <path
             id="path4163"
             style="font-weight:bold;-inkscape-font-specification:Sans Bold"
             d="m 662.03607,217.90148 c -3e-5,-4.99642 -0.47291,-8.51177 -1.41864,-10.54607 -0.92793,-2.05207 -2.49824,-3.07813 -4.71093,-3.07816 -2.21273,3e-5 -3.79196,1.02609 -4.7377,3.07816 -0.94577,2.0343 -1.41865,5.54965 -1.41863,10.54607 -2e-5,5.04999 0.47286,8.60995 1.41863,10.6799 0.94574,2.06996 2.52497,3.10494 4.7377,3.10493 2.19485,1e-5 3.76515,-1.03497 4.71093,-3.10493 0.94573,-2.06995 1.41861,-5.62991 1.41864,-10.6799 m 10.30516,0.0803 c -3e-5,6.6203 -1.42759,11.73273 -4.28266,15.3373 -2.85514,3.58673 -6.90583,5.3801 -12.15207,5.3801 -5.26412,0 -9.32373,-1.79337 -12.17883,-5.3801 -2.85512,-3.60457 -4.28267,-8.717 -4.28267,-15.3373 0,-6.63811 1.42755,-11.75053 4.28267,-15.3373 2.8551,-3.60454 6.91471,-5.40682 12.17883,-5.40687 5.24624,5e-5 9.29693,1.80233 12.15207,5.40687 2.85507,3.58677 4.28263,8.69919 4.28266,15.3373"
             inkscape:connector-curvature="0" />
        </g>
      </g>
    </g>
  </g>
</svg>
